<svg xmlns="http://www.w3.org/2000/svg" width="691" height="492" xml:space="preserve"><g transform="translate(345.5 246)"><radialGradient id="SVGID_149" gradientUnits="objectBoundingBox" cx=".5" cy=".5" r=".5" fx=".5" fy=".5"><stop offset="0%" style="stop-color:#1900ff;stop-opacity:1"/><stop offset="100%" style="stop-color:#f274df;stop-opacity:1"/></radialGradient><rect style="stroke:none;stroke-width:0;stroke-dasharray:0 0;stroke-linecap:butt;stroke-dashoffset:0;stroke-linejoin:miter;stroke-miterlimit:4;fill:url(#SVGID_149);fill-rule:evenodd;opacity:1" vector-effect="non-scaling-stroke" x="-345.5" y="-246" rx="0" ry="0" width="691" height="492"/></g><rect style="stroke:#000;stroke-width:0;stroke-dasharray:0 0;stroke-linecap:butt;stroke-dashoffset:0;stroke-linejoin:miter;stroke-miterlimit:4;fill:#929292;fill-rule:evenodd;opacity:1" vector-effect="non-scaling-stroke" x="-55" y="-55.5" rx="0" ry="0" width="110" height="111" transform="translate(636 436.5)"/><path style="stroke:#727272;stroke-width:0;stroke-dasharray:none;stroke-linecap:butt;stroke-dashoffset:0;stroke-linejoin:round;stroke-miterlimit:4;fill:#727272;fill-rule:nonzero;opacity:1" vector-effect="non-scaling-stroke"/><path style="stroke:#000;stroke-opacity:0;stroke-width:0;stroke-dasharray:none;stroke-linecap:butt;stroke-dashoffset:0;stroke-linejoin:miter;stroke-miterlimit:4;fill:red;fill-rule:nonzero;opacity:1" vector-effect="non-scaling-stroke" transform="translate(407 335)" d="M -130.71116 -172.55929 L -137.9223 -164.85852 L -153.93699 -179.85496 L -167.99017 -164.84757000000002 L -151.97548 -149.85113 L -159.18662 -142.15036 L -196.55180000000001 -177.13978 L -189.34066 -184.84055 L -174.20189000000002 -170.66433 L -160.14871000000002 -185.67172 L -175.28748000000002 -199.84794 L -168.07634000000002 -207.54871 z M -112.34926 -181.31751 C -117.25697 -178.66217 -122.06371 -178.00571 -126.76948 -179.34812 C -131.48112 -180.68735999999998 -135.19316 -183.86361 -137.9056 -188.87686 L -138.37195 -189.73879 C -140.18976 -193.09855 -141.16479999999999 -196.4557 -141.29706 -199.81027 C -141.43517999999997 -203.16166 -140.701 -206.1967 -139.09452 -208.9154 C -137.48803999999998 -211.63409000000001 -135.15737 -213.81986 -132.10251 -215.47271 C -127.52902 -217.94722000000002 -123.14844 -218.45269000000002 -118.96077 -216.98913000000002 C -114.76724 -215.52874000000003 -111.23653 -212.14827000000002 -108.36863 -206.84771 L -106.39377999999999 -203.19771 L -127.70447999999999 -191.66745 C -126.23115999999999 -189.64487 -124.41345999999999 -188.36574000000002 -122.25138999999999 -187.83006 C -120.08344999999998 -187.29755 -117.88542999999999 -187.63406 -115.65731999999998 -188.83959000000002 C -112.21547999999999 -190.70182000000003 -110.19829999999999 -193.40395 -109.60578999999998 -196.94600000000003 L -102.55689999999998 -194.40408000000002 C -102.87492999999998 -191.7837 -103.89020999999998 -189.32423000000003 -105.60273999999998 -187.02570000000003 C -107.31526999999998 -184.72716000000003 -109.56410999999999 -182.82444000000004 -112.34923999999998 -181.31752000000003 z M -128.22607 -208.22403 C -129.99683 -207.26595 -131.10979 -205.89063 -131.56493999999998 -204.09807 C -132.02008999999998 -202.30551 -131.80028 -200.21110000000002 -130.90551 -197.81485 L -118.47792999999999 -204.53885 L -118.86337999999999 -205.25126 C -119.97353999999999 -207.20503 -121.33805 -208.44512 -122.95692 -208.9715 C -124.56993 -209.50106 -126.32630999999999 -209.25189999999998 -128.22607 -208.22403 z M -76.6529 -194.19613 C -77.30739 -194.98581000000001 -77.88693 -196.02106 -78.39152 -197.30188 C -80.19527 -194.09163 -83.01654 -192.05792000000002 -86.85534 -191.20074000000002 C -90.49244 -190.38860000000003 -93.7428 -190.76599000000002 -96.60643999999999 -192.33292000000003 C -99.46502 -193.90781000000004 -101.25171999999999 -196.29583000000002 -101.96651999999999 -199.49700000000004 C -102.84403999999999 -203.42689000000004 -102.06072999999999 -206.77131000000003 -99.61656999999998 -209.53027000000003 C -97.17095999999998 -212.28273000000004 -93.19232999999998 -214.28798000000003 -87.68068999999998 -215.54602000000003 L -83.12292999999998 -216.56374000000002 L -83.59800999999999 -218.69134000000003 C -83.98010999999998 -220.40253 -84.72585 -221.67732000000004 -85.83521999999999 -222.51571 C -86.94314 -223.34759000000003 -88.44703999999999 -223.55142 -90.34692 -223.12718 C -92.01907 -222.7538 -93.24077 -222.0609 -94.01201 -221.04849000000002 C -94.78325000000001 -220.03608000000003 -95.01269 -218.83044 -94.70032 -217.43155000000002 L -104.61612000000001 -215.21740000000003 C -105.09701000000001 -217.37103000000002 -104.87793 -219.51019000000002 -103.95887 -221.63488000000004 C -103.03981 -223.75957000000002 -101.48306000000001 -225.61339000000004 -99.28861 -227.19633000000005 C -97.10067000000001 -228.77782000000005 -94.49396 -229.90635000000003 -91.46847000000001 -230.58193000000006 C -86.89445 -231.60329000000004 -83.00743000000001 -231.26559000000006 -79.80742000000001 -229.56885000000005 C -76.60741 -227.87211000000005 -74.54249000000002 -224.94168000000005 -73.61266 -220.77756000000005 L -70.01903 -204.68390000000005 C -69.21206 -201.16177000000005 -68.12589 -198.60708000000005 -66.76049 -197.01982000000004 L -66.62973000000001 -196.43424000000005 z M -86.39176 -199.26561 C -84.92781000000001 -199.5925 -83.65037000000001 -200.21929 -82.55943 -201.14598 C -81.46849 -202.07267000000002 -80.74975 -203.15191000000002 -80.40319000000001 -204.3837 L -81.82844000000001 -210.76651 L -85.52735000000001 -209.94056 C -90.49176000000001 -208.83203 -92.74982000000001 -206.52448 -92.30153000000001 -203.01789 L -92.21199000000001 -202.43335 C -91.93595000000002 -201.19713 -91.27265000000001 -200.27621 -90.22208000000002 -199.67059999999998 C -89.17802000000002 -199.06354 -87.90125000000002 -198.92853999999997 -86.39176000000002 -199.26559999999998 z M -65.86662 -215.68595 C -65.53823 -221.61019 -63.94884 -226.25267 -61.09847 -229.61339999999998 C -58.24809 -232.97411999999997 -54.51645 -234.52664 -49.903529999999996 -234.27093 C -46.209199999999996 -234.06615 -43.233779999999996 -232.51576 -40.97727999999999 -229.61975999999999 L -39.902989999999996 -249.00000999999997 L -29.718619999999994 -248.43546999999998 L -32.707359999999994 -194.51824 L -41.87329 -195.02633 L -42.13894 -199.08726000000001 C -44.843289999999996 -196.07232000000002 -48.18241 -194.67498 -52.15631 -194.89527 C -56.629439999999995 -195.14322 -60.11967 -197.10274 -62.626999999999995 -200.77380000000002 C -65.13432999999999 -204.44487 -66.21419999999999 -209.41559 -65.86662 -215.68596000000002 z M -55.76315 -214.38475 C -55.960190000000004 -210.83021 -55.492230000000006 -208.07008 -54.35929 -206.10435999999999 C -53.21969 -204.13826999999998 -51.46838 -203.08973999999998 -49.10534 -202.95874999999998 C -45.97015 -202.78495999999998 -43.68679 -203.98708999999997 -42.25524 -206.56515 L -41.42448 -221.55213999999998 C -42.54272 -224.26485999999997 -44.65612 -225.70736999999997 -47.764680000000006 -225.87967999999998 C -52.65717000000001 -226.15087999999997 -55.323330000000006 -222.31923999999998 -55.76315 -214.38474999999997 z M -18.85184 -189.75513 L -28.66968 -192.52098 L -14.02694 -244.4978 L -4.209099999999999 -241.73195 z M -3.5836 -183.5537 L -12.93028 -187.63776 L 2.3008500000000005 -222.49539 L 11.64753 -218.41133 z M 5.69096 -231.75242 C 6.30223 -233.15137000000001 7.2714 -234.09565 8.59846 -234.58526 C 9.928189999999999 -235.08098 11.399429999999999 -234.97649 13.01219 -234.27179 C 14.60052 -233.57777000000002 15.67059 -232.57182 16.22242 -231.25395 C 16.77081 -229.94486 16.739359999999998 -228.59084000000001 16.12809 -227.19189 C 15.50881 -225.77462 14.52647 -224.82518 13.181090000000001 -224.34358 C 11.82693 -223.85854 10.3679 -223.95769 8.804010000000002 -224.64104 C 7.234010000000001 -225.32705 6.170040000000002 -226.33033 5.612110000000001 -227.65087 C 5.045400000000001 -228.96797 5.0716800000000015 -230.33515 5.690960000000001 -231.75243 z M 30.63445 -207.79663 L 28.322400000000002 -204.03939 C 32.51666 -205.20841 36.46651 -204.45836 40.17195 -201.78924 C 43.44464 -199.43185 45.18724 -196.71825 45.399750000000004 -193.64844 C 45.617670000000004 -190.57473 44.368140000000004 -187.11202 41.65117000000001 -183.2603 L 27.290560000000006 -163.32395 L 19.046630000000007 -169.26224 L 33.26696000000001 -189.00385 C 34.52553000000001 -190.75109 35.05790000000001 -192.2943 34.86407000000001 -193.63348 C 34.67565000000001 -194.96876 33.69700000000001 -196.27348999999998 31.928120000000014 -197.54765 C 29.607490000000013 -199.21925000000002 27.152600000000014 -199.48401 24.563450000000014 -198.34192000000002 L 8.887770000000014 -176.5799 L 0.6438400000000133 -182.51819 L 22.87736000000001 -213.38423 z M 39.25516 -147.29464 C 35.82402 -151.69505999999998 34.37885 -156.32943999999998 34.919639999999994 -161.19777 C 35.464529999999996 -166.06083999999998 37.9845 -170.24483999999998 42.479549999999996 -173.74976999999998 L 43.252379999999995 -174.35236999999998 C 46.26486 -176.70127999999997 49.412229999999994 -178.22124999999997 52.69452 -178.91225999999997 C 55.9809 -179.59801999999996 59.09766 -179.37376999999998 62.044779999999996 -178.23950999999997 C 64.99190999999999 -177.10524999999996 67.53129 -175.17120999999997 69.66293999999999 -172.43736999999996 C 72.86040999999999 -168.33661999999995 74.08613 -164.09752999999995 73.34009999999999 -159.72009999999995 C 72.58997 -155.34792999999993 69.83856999999999 -151.30894999999995 65.08591 -147.60315999999995 L 61.81319 -145.05132999999995 L 46.920339999999996 -164.15136999999996 C 45.165459999999996 -162.36880999999997 44.20489 -160.36443999999995 44.03861 -158.13825999999995 C 43.87233 -155.91207999999995 44.56602 -153.80271999999994 46.119659999999996 -151.81017999999995 C 48.52596 -148.72409999999994 51.52475 -147.18206999999995 55.116009999999996 -147.18409999999994 L 53.77605 -139.81166999999994 C 51.14327 -139.68626999999992 48.54967 -140.28039999999993 45.99525 -141.59404999999992 C 43.44493 -142.90244999999993 41.198229999999995 -144.8026399999999 39.25515 -147.29463999999993 z M 63.15601 -167.41445 C 61.91801 -169.00217999999998 60.377430000000004 -169.8721 58.53425 -170.02423 C 56.69107 -170.17634999999999 54.66195 -169.61285999999998 52.44688 -168.33375999999998 L 61.14155 -157.18286999999998 L 61.78032 -157.68094 C 63.51926 -159.10447 64.51635 -160.65545 64.77158 -162.33386 C 65.02271 -164.01753 64.48419 -165.71105999999997 63.15601 -167.41445 z"/><path style="stroke:none;stroke-width:1;stroke-dasharray:none;stroke-linecap:butt;stroke-dashoffset:0;stroke-linejoin:miter;stroke-miterlimit:4;fill:#727272;fill-rule:nonzero;opacity:1" vector-effect="non-scaling-stroke"/><path style="stroke:none;stroke-width:1;stroke-dasharray:none;stroke-linecap:butt;stroke-dashoffset:0;stroke-linejoin:miter;stroke-miterlimit:4;fill:none;fill-rule:nonzero;opacity:1" vector-effect="non-scaling-stroke"/><rect style="stroke:#000;stroke-width:0;stroke-dasharray:0 0;stroke-linecap:butt;stroke-dashoffset:0;stroke-linejoin:miter;stroke-miterlimit:4;fill:#929292;fill-rule:evenodd;opacity:1" vector-effect="non-scaling-stroke" x="-55" y="-55.5" rx="0" ry="0" width="110" height="111" transform="translate(636 55.5)"/><rect style="stroke:#000;stroke-width:0;stroke-dasharray:0 0;stroke-linecap:butt;stroke-dashoffset:0;stroke-linejoin:miter;stroke-miterlimit:4;fill:#929292;fill-rule:evenodd;opacity:1" vector-effect="non-scaling-stroke" x="-55" y="-55.5" rx="0" ry="0" width="110" height="111" transform="translate(55 436.5)"/><rect style="stroke:#000;stroke-width:0;stroke-dasharray:0 0;stroke-linecap:butt;stroke-dashoffset:0;stroke-linejoin:miter;stroke-miterlimit:4;fill:#929292;fill-rule:evenodd;opacity:1" vector-effect="non-scaling-stroke" x="-55" y="-55.5" rx="0" ry="0" width="110" height="111" transform="translate(55 55.5)"/></svg>